<svg width="31" height="30" viewBox="0 0 31 30" fill="none" xmlns="http://www.w3.org/2000/svg">
<path d="M21.6178 5.34593H9.39184C9.44978 4.47503 9.96161 4 10.879 4H20.121C21.048 4 21.5502 4.47503 21.6178 5.34593Z" fill="white" fill-opacity="0.5"/>
<path d="M23.5879 8.20603H7.42178C7.55698 7.26586 8.02052 6.73144 9.04418 6.73144H21.9655C22.9891 6.73144 23.4527 7.26586 23.5879 8.20603Z" fill="white" fill-opacity="0.5"/>
<path d="M22.4387 26H8.56132C6.54297 26 5.5 24.9312 5.5 22.8925V12.9267C5.5 10.8781 6.54297 9.81916 8.56132 9.81916H22.4387C24.4474 9.81916 25.5 10.888 25.5 12.9267V22.8925C25.5 24.9312 24.4474 26 22.4387 26Z" fill="white" fill-opacity="0.5"/>
</svg>
